<svg fill="none" height="48" width="40" xmlns="http://www.w3.org/2000/svg"><path clip-rule="evenodd" d="M40 24c0 11.046-8.954 20-20 20C10.192 44 2.033 36.94.328 27.625A20.121 20.121 0 0 1 0 24c0-.964.068-1.913.2-2.841C1.448 12.387 8.387 5.448 17.16 4.2l.044-.006a20.175 20.175 0 0 1 6.422.134C32.94 6.033 40 14.192 40 24zm-5 0c0 8.284-6.716 15-15 15-6.243 0-11.595-3.814-13.854-9.239C7.074 29.918 8.028 30 9 30c9.389 0 17-7.611 17-17 0-.972-.082-1.926-.238-2.854C31.186 12.406 35 17.757 35 24zM20.318 9.003A11.98 11.98 0 0 1 21 13c0 6.627-5.373 12-12 12a11.98 11.98 0 0 1-3.997-.682A15.31 15.31 0 0 1 5 24c0-8.284 6.716-15 15-15l.318.003z" fill="#fff" fill-rule="evenodd"/></svg>