<svg xmlns="http://www.w3.org/2000/svg" width="26" height="26" ><g transform="translate(-0.003 -0.003)"><g transform="translate(0 0)"><path d="M 9.854 21.245 L 12.971 19.097 C 14.666 20.76 17.304 23.16 19.514 23.16 C 21.004 23.16 21.87 21.879 22.147 21.082 C 21.28 23.506 19.549 25.722 17.023 25.722 C 14.358 25.711 11.793 23.252 9.854 21.245 Z" fill="rgb(29, 31, 19)"></path><path d="M 4.981 16.589 L 8.705 17.274 C 8.73 19.65 8.9 23.2 10.468 24.766 C 11.519 25.819 13.039 25.527 13.797 25.158 C 11.47 26.274 8.67 26.602 6.893 24.817 C 5.008 22.929 4.933 19.382 4.981 16.589 Z" fill="rgb(29, 31, 19)"></path><path d="M 4.83 9.854 L 6.977 12.971 C 5.314 14.666 2.915 17.304 2.915 19.514 C 2.915 21.004 4.196 21.87 4.992 22.147 C 2.555 21.28 0.353 19.549 0.353 17.023 C 0.364 14.358 2.823 11.793 4.83 9.854 Z" fill="rgb(29, 31, 19)"></path><path d="M 9.483 4.981 L 8.8 8.705 C 6.425 8.73 2.874 8.9 1.306 10.468 C 0.255 11.519 0.545 13.039 0.916 13.797 C -0.186 11.47 -0.538 8.67 1.257 6.893 C 3.145 5.008 6.693 4.933 9.483 4.981 Z" fill="rgb(29, 31, 19)"></path><path d="M 16.221 4.83 L 13.104 6.977 C 11.408 5.314 8.77 2.915 6.56 2.915 C 5.071 2.915 4.204 4.196 3.928 4.992 C 4.794 2.555 6.525 0.353 9.052 0.353 C 11.72 0.364 14.282 2.823 16.221 4.83 Z" fill="rgb(29, 31, 19)"></path><path d="M 21.093 9.483 L 17.369 8.8 C 17.337 6.425 17.174 2.874 15.606 1.306 C 14.555 0.255 13.036 0.545 12.278 0.916 C 14.604 -0.186 17.394 -0.538 19.181 1.257 C 21.066 3.145 21.142 6.693 21.093 9.483 Z" fill="rgb(29, 31, 19)"></path><path d="M 21.245 16.221 L 19.097 13.104 C 20.76 11.408 23.16 8.77 23.16 6.56 C 23.16 5.071 21.879 4.204 21.082 3.928 C 23.506 4.794 25.722 6.525 25.722 9.052 C 25.711 11.72 23.252 14.282 21.245 16.221 Z" fill="rgb(29, 31, 19)"></path><path d="M 16.589 21.093 L 17.274 17.369 C 19.65 17.345 23.2 17.174 24.768 15.606 C 25.819 14.555 25.527 13.036 25.158 12.278 C 26.261 14.604 26.605 17.394 24.817 19.181 C 22.932 21.066 19.382 21.142 16.589 21.093 Z" fill="rgb(29, 31, 19)"></path></g></g></svg>